<svg width="190" height="71" viewBox="0 0 190 71" fill="none" xmlns="http://www.w3.org/2000/svg">
<path d="M180.585 38.8525V34.5387H179.053V33.6462H183.084V34.5387H181.56V38.8525H180.585ZM183.767 38.8525V33.6462H184.734L186.147 36.1006L187.545 33.6462H188.52V38.8525H187.538V35.3197L186.422 37.3427H185.857L184.741 35.3197V38.8525H183.767Z" fill="#0852FF"/>
<path d="M13.8386 7.20286C21.2245 7.20286 24.9175 9.66927 24.9175 14.6021C24.9175 15.962 24.5575 17.2685 23.8376 18.5217C23.1443 19.7482 22.2111 20.5882 21.0379 21.0414V21.2014C22.6377 21.6281 23.9176 22.428 24.8775 23.6012C25.8374 24.7744 26.3173 26.3076 26.3173 28.2007C26.3173 31.1071 25.2374 33.3069 23.0776 34.8C20.9179 36.2666 18.1182 36.9998 14.6785 36.9998H3.43965V7.20286H13.8386ZM13.5586 19.0416C15.0251 19.0416 16.1184 18.7483 16.8383 18.1617C17.5849 17.5751 17.9582 16.7485 17.9582 15.682C17.9582 14.6421 17.5982 13.8822 16.8783 13.4022C16.185 12.9223 15.0785 12.6823 13.5586 12.6823H10.5989V19.0416H13.5586ZM14.1586 31.5204C17.6249 31.5204 19.358 30.2538 19.358 27.7208C19.358 26.5209 18.9314 25.6543 18.0782 25.121C17.2249 24.5611 15.9184 24.2811 14.1586 24.2811H10.5989V31.5204H14.1586ZM36.4488 37.5598C35.0889 37.5598 33.889 37.2531 32.8491 36.6399C31.8359 36.0266 31.0493 35.2 30.4894 34.1601C29.9561 33.0935 29.6895 31.9203 29.6895 30.6405C29.6895 28.214 30.6894 26.3342 32.6892 25.001C34.689 23.6678 37.902 22.7613 42.3282 22.2813C42.2482 21.3214 41.9282 20.6015 41.3683 20.1215C40.835 19.6149 40.0084 19.3616 38.8885 19.3616C38.0086 19.3616 37.0887 19.5349 36.1288 19.8816C35.1956 20.2015 34.129 20.6948 32.9291 21.3614L30.4494 16.6819C33.7824 14.6821 37.0487 13.6822 40.2484 13.6822C43.2348 13.6822 45.5145 14.5488 47.0877 16.2819C48.6609 17.9884 49.4475 20.5882 49.4475 24.0811V36.9998H43.648L43.1681 34.72H42.9681C40.8617 36.6132 38.6886 37.5598 36.4488 37.5598ZM38.8885 32.0403C39.5551 32.0403 40.1551 31.8937 40.6883 31.6004C41.2216 31.3071 41.7682 30.8538 42.3282 30.2405V26.6009C38.4086 27.1075 36.4488 28.2674 36.4488 30.0805C36.4488 30.7205 36.6621 31.2137 37.0887 31.5604C37.5153 31.8803 38.1153 32.0403 38.8885 32.0403ZM54.9447 36.9998V5.04308H61.944V22.8013H62.144L68.8633 14.2421H76.6625L68.7433 23.7212L77.2224 36.9998H69.5032L64.5837 28.3607L61.944 31.3604V36.9998H54.9447ZM87.173 37.5598C84.7466 37.5598 82.9467 36.7598 81.7735 35.16C80.627 33.5335 80.0537 31.2537 80.0537 28.3207V14.2421H87.173V27.4408C87.173 28.9606 87.373 30.0139 87.7729 30.6005C88.1995 31.1871 88.8795 31.4804 89.8127 31.4804C90.6126 31.4804 91.2926 31.3071 91.8525 30.9604C92.4124 30.6138 92.999 30.0139 93.6123 29.1606V14.2421H100.732V36.9998H94.9322L94.4122 33.8801H94.2523C93.239 35.08 92.1725 35.9999 91.0526 36.6399C89.9327 37.2531 88.6395 37.5598 87.173 37.5598ZM118.942 37.5598C114.915 37.5598 111.889 36.3732 109.863 34.0001C107.863 31.627 106.863 27.9607 106.863 23.0012V7.20286H113.982V23.7612C113.982 26.5076 114.382 28.4674 115.182 29.6406C116.009 30.8138 117.262 31.4004 118.942 31.4004C120.621 31.4004 121.875 30.8138 122.701 29.6406C123.554 28.4407 123.981 26.4809 123.981 23.7612V7.20286H130.86V23.0012C130.86 27.9874 129.874 31.667 127.901 34.0401C125.928 36.3865 122.941 37.5598 118.942 37.5598ZM136.968 14.2421H142.767L143.287 18.2017H143.407C144.207 16.7352 145.18 15.6153 146.327 14.8421C147.5 14.0688 148.686 13.6822 149.886 13.6822C151.006 13.6822 151.926 13.8422 152.646 14.1621L151.486 20.2815C150.473 20.0415 149.633 19.9216 148.966 19.9216C148.033 19.9216 147.113 20.2549 146.207 20.9215C145.327 21.5881 144.62 22.6146 144.087 24.0011V36.9998H136.968V14.2421ZM165.839 37.5598C163.626 37.5598 161.64 37.0931 159.88 36.1599C158.147 35.2 156.774 33.8135 155.76 32.0003C154.747 30.1872 154.241 28.0541 154.241 25.601C154.241 23.2279 154.747 21.1481 155.76 19.3616C156.774 17.5485 158.107 16.1486 159.76 15.162C161.413 14.1755 163.173 13.6822 165.039 13.6822C167.173 13.6822 168.959 14.1621 170.399 15.122C171.865 16.0553 172.959 17.3485 173.679 19.0017C174.425 20.6548 174.798 22.5346 174.798 24.6411C174.798 25.9476 174.692 26.9742 174.478 27.7208H161.12C161.44 29.2139 162.093 30.3205 163.08 31.0404C164.066 31.7604 165.306 32.1203 166.799 32.1203C168.372 32.1203 169.972 31.6404 171.599 30.6805L173.958 34.96C172.812 35.7866 171.505 36.4265 170.039 36.8798C168.599 37.3331 167.199 37.5598 165.839 37.5598ZM168.759 23.0412C168.759 21.8414 168.466 20.8948 167.879 20.2015C167.293 19.4816 166.386 19.1216 165.159 19.1216C164.12 19.1216 163.226 19.4549 162.48 20.1215C161.733 20.7881 161.24 21.7614 161 23.0412H168.759Z" fill="#0852FF"/>
<path d="M7.58785 68.0451H3.60666C3.62174 68.03 3.76501 67.7133 4.03645 67.0951C4.3079 66.4768 4.62458 65.6021 4.98651 64.4711C5.34843 63.325 5.67266 61.9753 5.95918 60.422C6.24571 58.8537 6.38897 57.1195 6.38897 55.2194V50.4917H9.89513V55.2194C9.89513 57.3155 9.78203 59.1628 9.55583 60.7613C9.3447 62.3599 9.07326 63.702 8.74149 64.7878C8.40973 65.8585 8.13074 66.6653 7.90454 67.2082C7.69341 67.7661 7.58785 68.0451 7.58785 68.0451ZM19.6219 68.0451H15.8443C15.2712 66.9443 14.8339 65.8585 14.5323 64.7878C14.2307 63.702 13.9517 62.3599 13.6954 60.7613C13.4541 59.1628 13.3334 57.3155 13.3334 55.2194V50.4917H16.8396V55.2194C16.8396 57.1195 16.9829 58.8537 17.2694 60.422C17.5559 61.9753 17.8801 63.325 18.2421 64.4711C18.604 65.6021 18.9207 66.4768 19.1921 67.0951C19.4636 67.7133 19.6068 68.03 19.6219 68.0451ZM15.8443 50.9441V47.3701H17.5634V50.9441H15.8443ZM18.5361 50.9441V47.3701H20.2553V50.9441H18.5361ZM25.1323 49.8583H28.7063C28.646 50.2806 28.5706 50.6877 28.4801 51.0798C28.3896 51.4719 28.2991 51.8489 28.2086 52.2108H35.6507V55.6718C35.4849 57.6322 35.0551 59.3664 34.3614 60.8744C33.6677 62.3674 32.8307 63.5964 31.8505 64.5616C30.8854 65.5267 29.8901 66.3033 28.8646 66.8915C27.8542 67.4796 26.9042 67.9471 26.0145 68.2939C25.1398 68.6408 24.4235 68.8745 23.8655 68.9952C23.3075 69.1309 23.021 69.1912 23.0059 69.1761V65.5116C23.021 65.5267 23.3151 65.4588 23.8881 65.308C24.4763 65.1422 25.1926 64.8556 26.0371 64.4485C26.8816 64.0413 27.7638 63.423 28.6837 62.5936C29.6036 61.7642 30.3425 60.8066 30.9005 59.7208C31.4735 58.635 31.8581 57.2552 32.0541 55.5813H26.8288C25.9541 56.9385 25.1021 58.0394 24.2727 58.8839C23.4433 59.7283 22.7496 60.3466 22.1916 60.7387C21.6487 61.1308 21.3622 61.3193 21.332 61.3042V56.9385C21.3471 56.9385 21.513 56.8028 21.8297 56.5313C22.1614 56.2448 22.5385 55.7924 22.9607 55.1741C23.3829 54.5558 23.7901 53.8244 24.1822 52.9799C24.5894 52.1204 24.9061 51.0798 25.1323 49.8583ZM46.4233 53.0478V52.0299H38.1895V49.044H46.4233V47.5284H49.8616V49.044H58.3669V52.0299H49.8616V53.0478H56.2858V55.898H40.3837V53.0478H46.4233ZM58.2764 61.7793H54.9512V59.5625H41.4921V61.7793H38.3252V56.6444H58.2764V61.7793ZM47.0115 60.0149C46.8908 61.7491 46.6345 63.1666 46.2424 64.2675C45.8503 65.3533 45.1114 66.3033 44.0256 67.1177C42.9398 67.932 41.3488 68.588 39.2527 69.0856C39.1019 68.6483 38.8455 68.1431 38.4836 67.5701C38.1367 67.0121 37.7974 66.5672 37.4657 66.2355C39.2451 65.9037 40.5571 65.4739 41.4016 64.9461C42.2461 64.4032 42.7965 63.7774 43.0529 63.0686C43.3093 62.3448 43.4902 61.3269 43.5958 60.0149H47.0115ZM55.2453 65.8509C55.4866 65.8509 55.6675 65.7906 55.7882 65.67C55.9088 65.5493 55.9918 65.3156 56.037 64.9687C56.0973 64.6219 56.1426 64.0639 56.1727 63.2948C56.4743 63.5361 56.9117 63.7699 57.4847 63.9961C58.0728 64.2223 58.6157 64.3957 59.1134 64.5163C58.9927 65.6473 58.8042 66.5145 58.5479 67.1177C58.3066 67.736 57.9522 68.1658 57.4847 68.407C57.0172 68.6634 56.3763 68.7916 55.562 68.7916H52.8701C51.8748 68.7916 51.1133 68.6709 50.5855 68.4297C50.0577 68.2035 49.6882 67.8264 49.4771 67.2986C49.281 66.7708 49.183 66.0168 49.183 65.0366V60.0375H52.4856V64.9914C52.4856 65.3684 52.5384 65.6096 52.6439 65.7152C52.7495 65.8057 52.9908 65.8509 53.3678 65.8509H55.2453ZM67.5508 68.9952H64.203V62.6388C63.5696 63.5286 62.989 64.3504 62.4612 65.1045C61.9485 65.8585 61.3754 66.7105 60.742 67.6606V62.2995C62.0842 60.505 63.2378 58.9442 64.203 57.6171V56.9837H60.742V53.5228H64.203V49.8583H67.5508V54.7217C68.0937 54.0431 68.7195 53.5304 69.4283 53.1835C70.1521 52.8216 70.8458 52.6105 71.5093 52.5501C72.4142 52.4747 73.1305 52.6331 73.6583 53.0252C74.2012 53.4173 74.5556 53.9677 74.7214 54.6765C74.8873 55.3852 74.9401 56.1769 74.8798 57.0516C74.8496 57.5643 74.8119 58.1751 74.7667 58.8839C74.7365 59.5775 74.6988 60.2863 74.6536 61.0102C74.6234 61.734 74.5933 62.3749 74.5631 62.9329C74.548 63.4758 74.5405 63.8453 74.5405 64.0413C74.5405 64.2826 74.5782 64.4334 74.6536 64.4937C74.7441 64.554 74.8421 64.5767 74.9476 64.5616C75.1286 64.5314 75.3322 64.4485 75.5584 64.3127C75.7846 64.1619 76.0862 63.9131 76.4632 63.5663V67.3213C76.0108 67.6832 75.581 67.9471 75.1738 68.113C74.7818 68.2789 74.3067 68.3467 73.7488 68.3166C72.8289 68.2261 72.1352 67.8114 71.6677 67.0724C71.2153 66.3335 71.0042 65.4362 71.0343 64.3806C71.0343 63.9885 71.0494 63.4607 71.0796 62.7972C71.1097 62.1336 71.1474 61.4324 71.1927 60.6935C71.2379 59.9546 71.2756 59.2986 71.3058 58.7255C71.351 58.1374 71.3736 57.7453 71.3736 57.5493C71.3887 57.1873 71.351 56.8782 71.2605 56.6218C71.17 56.3655 70.9514 56.2297 70.6045 56.2146C70.2577 56.2297 69.7977 56.4786 69.2247 56.9611C68.6516 57.4437 68.0937 58.0695 67.5508 58.8386V68.9952ZM79.4489 66.8236V49.9714H83.498V63.4306H90.0579V66.8236H79.4489ZM98.8947 49.9714C100.931 49.9714 102.559 50.4012 103.781 51.2608C105.017 52.1204 105.636 53.5228 105.636 55.4682C105.636 56.75 105.334 57.8282 104.731 58.7029C104.143 59.5625 103.343 60.2034 102.333 60.6256C101.338 61.0328 100.222 61.2364 98.9852 61.2364H97.0172V66.8236H92.9681V49.9714H98.8947ZM98.7816 58.0469C99.7467 58.0469 100.471 57.8282 100.953 57.3909C101.451 56.9385 101.7 56.2976 101.7 55.4682C101.7 54.6538 101.443 54.0733 100.931 53.7264C100.433 53.3645 99.6788 53.1835 98.6685 53.1835H97.0172V58.0469H98.7816ZM114.153 60.0149H107.774V56.554H122.522V60.0149H117.817C117.697 61.6285 117.312 62.9706 116.664 64.0413C116.015 65.112 115.208 65.9565 114.243 66.5748C113.293 67.1931 112.373 67.6455 111.483 67.932C110.609 68.2185 109.877 68.3995 109.289 68.4749C108.716 68.5654 108.422 68.6031 108.407 68.588V64.9461C108.422 64.9612 108.709 64.931 109.267 64.8556C109.825 64.7652 110.481 64.5691 111.235 64.2675C112.004 63.9508 112.652 63.4607 113.18 62.7972C113.723 62.1186 114.047 61.1911 114.153 60.0149ZM108.407 54.1788V50.7179H121.911V54.1788H108.407ZM136.451 54.7669H140.047C139.293 57.5266 138.283 59.7736 137.016 61.5078C135.749 63.242 134.43 64.5842 133.057 65.5342C131.7 66.4692 130.411 67.1328 129.189 67.5248C127.968 67.9169 126.965 68.1431 126.181 68.2035C125.412 68.2789 125.02 68.309 125.005 68.2939V64.6068C125.02 64.6219 125.329 64.6144 125.932 64.5842C126.535 64.5389 127.304 64.3806 128.239 64.1092C129.189 63.8377 130.185 63.3174 131.225 62.5484C132.266 61.7793 133.223 60.8066 134.098 59.6303C134.988 58.439 135.772 56.8179 136.451 54.7669ZM125.005 54.4955V50.9667H132.062V54.4955H125.005ZM152.798 54.4955H142.415V50.8762H153.702L156.281 51.6453V54.2014C156.281 56.4182 155.942 58.3259 155.263 59.9244C154.585 61.5229 153.785 62.8424 152.865 63.883C151.946 64.9084 150.973 65.7077 149.947 66.2807C148.922 66.8538 147.949 67.2836 147.029 67.5701C146.11 67.8717 145.356 68.0602 144.767 68.1356C144.194 68.2261 143.9 68.2638 143.885 68.2487V64.6294C145.092 64.4485 146.14 64.1921 147.029 63.8603C147.919 63.5135 148.801 62.9706 149.676 62.2317C150.566 61.4927 151.29 60.505 151.848 59.2684C152.406 58.0167 152.722 56.4258 152.798 54.4955ZM157.073 49.6774C157.073 49.3154 156.952 49.0214 156.711 48.7952C156.47 48.5539 156.176 48.4332 155.829 48.4332C155.482 48.4332 155.188 48.5539 154.947 48.7952C154.72 49.0214 154.607 49.3154 154.607 49.6774C154.607 50.0242 154.72 50.3183 154.947 50.5596C155.188 50.7858 155.482 50.8989 155.829 50.8989C156.176 50.8989 156.47 50.7858 156.711 50.5596C156.952 50.3183 157.073 50.0242 157.073 49.6774ZM153.883 47.7094C154.411 47.1816 155.06 46.9177 155.829 46.9177C156.598 46.9177 157.246 47.1891 157.774 47.732C158.317 48.2598 158.588 48.9083 158.588 49.6774C158.588 50.4465 158.317 51.0949 157.774 51.6227C157.246 52.1505 156.598 52.4144 155.829 52.4144C155.06 52.4144 154.411 52.1505 153.883 51.6227C153.356 51.0949 153.092 50.4465 153.092 49.6774C153.092 48.9083 153.356 48.2523 153.883 47.7094ZM170.558 56.7123H174.291C173.295 59.1251 172.187 61.0931 170.966 62.6162C169.744 64.1393 168.507 65.3156 167.256 66.145C166.004 66.9593 164.85 67.5324 163.795 67.8641C162.739 68.1959 161.465 68.3995 159.972 68.4749V50.5369H163.569V64.1318C164.187 63.9961 164.948 63.604 165.853 62.9555C166.773 62.3071 167.618 61.4927 168.387 60.5125C169.171 59.5172 169.895 58.2505 170.558 56.7123Z" fill="#0852FF"/>
</svg>
