<svg width="344" height="74" viewBox="0 0 344 74" fill="none" xmlns="http://www.w3.org/2000/svg">
<path d="M334.735 61.4528V51.9808H336.494L339.065 56.4462L341.609 51.9808H343.382V61.4528H341.596V55.0254L339.566 58.706H338.538L336.508 55.0254V61.4528H334.735Z" fill="#0852FF"/>
<path d="M328.947 61.4528V53.6046H326.159V51.9808H333.493V53.6046H330.719V61.4528H328.947Z" fill="#0852FF"/>
<path d="M301.341 59.1593C297.751 59.1593 294.404 58.2861 291.299 56.5397C288.194 54.7933 285.696 52.2707 283.804 48.9719C281.961 45.6732 281.039 41.8166 281.039 37.4021C281.039 32.9876 281.961 29.1552 283.804 25.905C285.696 22.6062 288.194 20.0836 291.299 18.3372C294.404 16.5908 297.751 15.7177 301.341 15.7177C304.882 15.7177 308.205 16.5908 311.31 18.3372C314.415 20.0836 316.889 22.6062 318.732 25.905C320.624 29.1552 321.57 32.9876 321.57 37.4021C321.57 41.8166 320.624 45.6732 318.732 48.9719C316.889 52.2707 314.415 54.7933 311.31 56.5397C308.205 58.2861 304.882 59.1593 301.341 59.1593ZM301.341 48.6809C303.669 48.6809 305.416 47.6864 306.58 45.6975C307.744 43.7085 308.326 40.9434 308.326 37.4021C308.326 33.8608 307.744 31.1199 306.58 29.1795C305.416 27.1905 303.669 26.196 301.341 26.196C298.964 26.196 297.193 27.1905 296.029 29.1795C294.865 31.1199 294.283 33.8608 294.283 37.4021C294.283 40.9919 294.865 43.7813 296.029 45.7702C297.193 47.7107 298.964 48.6809 301.341 48.6809Z" fill="#0852FF"/>
<path d="M235.473 16.7364H246.024L246.97 20.7385H247.188C248.934 19.1862 250.802 17.9734 252.791 17.1002C254.78 16.1785 256.793 15.7177 258.831 15.7177C262.081 15.7177 264.919 16.5908 267.344 18.3372C269.818 20.0351 271.71 22.4849 273.02 25.6867C274.33 28.8399 274.985 32.5267 274.985 36.7472C274.985 41.3072 274.16 45.2851 272.511 48.6809C270.91 52.0766 268.775 54.672 266.107 56.4669C263.439 58.2618 260.601 59.1593 257.594 59.1593C254.052 59.1593 250.851 57.7282 247.989 54.866L248.425 61.3423V73.2032H235.473V16.7364ZM254.537 48.5353C256.672 48.5353 258.394 47.5894 259.704 45.6975C261.014 43.8055 261.669 40.8949 261.669 36.9655C261.669 33.3271 261.111 30.6348 259.995 28.8884C258.928 27.142 257.254 26.2688 254.974 26.2688C253.761 26.2688 252.646 26.5599 251.627 27.142C250.608 27.6756 249.541 28.5488 248.425 29.7616V46.1341C250.22 47.7349 252.257 48.5353 254.537 48.5353Z" fill="#0852FF"/>
<path d="M181.613 58.1405L198.422 3.92944H213.994L230.803 58.1405H217.123L213.994 45.6974H197.986L194.857 58.1405H181.613ZM200.46 35.6556H211.52L210.356 31.0714C209.774 28.9854 209.022 25.9292 208.1 21.9028L206.063 13.6802H205.772C203.88 21.83 202.497 27.6271 201.624 31.0714L200.46 35.6556Z" fill="#0852FF"/>
<path d="M152.34 59.1593C147.926 59.1593 144.651 57.704 142.517 54.7933C140.431 51.8342 139.388 47.6865 139.388 42.3503V16.7365H152.34V40.7494C152.34 43.5145 152.704 45.4307 153.432 46.498C154.208 47.5652 155.445 48.0988 157.143 48.0988C158.598 48.0988 159.835 47.7835 160.854 47.1529C161.873 46.5222 162.94 45.4307 164.056 43.8784V16.7365H177.008V58.1406H166.457L165.511 52.4648H165.22C163.376 54.6478 161.436 56.3214 159.398 57.4857C157.361 58.6014 155.008 59.1593 152.34 59.1593Z" fill="#0852FF"/>
<path d="M93.7051 58.1404V0H106.439V32.3083H106.803L119.028 16.7363H133.217L118.81 33.982L134.236 58.1404H120.192L111.242 42.4229L106.439 47.8804V58.1404H93.7051Z" fill="#0852FF"/>
<path d="M60.0554 59.1593C57.5813 59.1593 55.3983 58.6014 53.5064 57.4856C51.6629 56.3699 50.2319 54.866 49.2131 52.9741C48.2429 51.0337 47.7578 48.8992 47.7578 46.5707C47.7578 42.1561 49.577 38.7361 53.2153 36.3106C56.8536 33.885 62.6992 32.2357 70.752 31.3625C70.6065 29.6161 70.0244 28.3063 69.0056 27.4331C68.0354 26.5113 66.5316 26.0505 64.4941 26.0505C62.8932 26.0505 61.2196 26.3658 59.4732 26.9965C57.7753 27.5786 55.8349 28.476 53.6519 29.6888L49.1404 21.1751C55.2043 17.5368 61.1468 15.7177 66.9682 15.7177C72.4014 15.7177 76.5491 17.2943 79.4112 20.4475C82.2734 23.5522 83.7045 28.282 83.7045 34.6369V58.1405H73.1533L72.2801 53.9928H71.9163C68.0839 57.4371 64.1303 59.1593 60.0554 59.1593ZM64.4941 49.1175C65.7069 49.1175 66.7984 48.8507 67.7686 48.317C68.7388 47.7834 69.7333 46.9587 70.752 45.843V39.2212C63.6209 40.1429 60.0554 42.2532 60.0554 45.5519C60.0554 46.7162 60.4434 47.6136 61.2196 48.2443C61.9958 48.8264 63.0873 49.1175 64.4941 49.1175Z" fill="#0852FF"/>
<path d="M18.9193 3.92944C32.3568 3.92944 39.0756 8.41671 39.0756 17.3913C39.0756 19.8653 38.4207 22.2424 37.1109 24.5224C35.8496 26.7539 34.1518 28.282 32.0173 29.1067V29.3977C34.9279 30.1739 37.2565 31.6292 39.0029 33.7637C40.7493 35.8982 41.6224 38.6876 41.6224 42.1319C41.6224 47.4196 39.6578 51.4217 35.7284 54.1383C31.799 56.8064 26.7053 58.1405 20.4474 58.1405H0V3.92944H18.9193ZM18.4099 25.4683C21.078 25.4683 23.067 24.9347 24.3768 23.8675C25.7351 22.8002 26.4142 21.2964 26.4142 19.3559C26.4142 17.464 25.7593 16.0815 24.4495 15.2083C23.1883 14.3351 21.1751 13.8985 18.4099 13.8985H13.0252V25.4683H18.4099ZM19.5014 48.1715C25.8079 48.1715 28.9611 45.8672 28.9611 41.2587C28.9611 39.0757 28.1849 37.4991 26.6325 36.5288C25.0802 35.5101 22.7032 35.0007 19.5014 35.0007H13.0252V48.1715H19.5014Z" fill="#0852FF"/>
</svg>
