<svg width="988" height="389" viewBox="0 0 988 389" fill="none" xmlns="http://www.w3.org/2000/svg">
<g filter="url(#filter0_d_2133_245)">
<path d="M908.899 202.041V181.31H901.536V177.021H920.909V181.31H913.581V202.041H908.899ZM924.19 202.041V177.021H928.836L935.627 188.816L942.347 177.021H947.029V202.041H942.311V185.063L936.95 194.785H934.233L928.872 185.063V202.041H924.19Z" fill="#0852FF"/>
<path d="M89.9745 50.3801C125.469 50.3801 143.216 62.233 143.216 85.9389C143.216 92.474 141.487 98.7528 138.027 104.775C134.695 110.67 130.21 114.706 124.572 116.885V117.653C132.261 119.704 138.411 123.548 143.024 129.186C147.637 134.824 149.944 142.192 149.944 151.29C149.944 165.257 144.754 175.829 134.375 183.005C123.996 190.052 110.541 193.576 94.0109 193.576H40V50.3801H89.9745ZM88.629 107.274C95.6767 107.274 100.93 105.865 104.39 103.046C107.978 100.226 109.772 96.2541 109.772 91.1285C109.772 86.1311 108.042 82.4791 104.582 80.1726C101.251 77.8661 95.933 76.7128 88.629 76.7128H74.4055V107.274H88.629ZM91.5121 167.243C108.17 167.243 116.499 161.157 116.499 148.984C116.499 143.217 114.449 139.053 110.349 136.49C106.248 133.799 99.9694 132.454 91.5121 132.454H74.4055V167.243H91.5121ZM198.633 196.267C192.098 196.267 186.331 194.793 181.334 191.846C176.465 188.899 172.685 184.927 169.994 179.929C167.431 174.804 166.149 169.166 166.149 163.015C166.149 151.354 170.955 142.32 180.565 135.913C190.176 129.506 205.617 125.15 226.888 122.843C226.503 118.23 224.966 114.77 222.275 112.464C219.712 110.029 215.74 108.812 210.358 108.812C206.129 108.812 201.708 109.645 197.095 111.311C192.61 112.848 187.485 115.219 181.718 118.422L169.801 95.9337C185.819 86.3233 201.516 81.518 216.893 81.518C231.244 81.518 242.2 85.6826 249.761 94.0117C257.321 102.213 261.101 114.706 261.101 131.493V193.576H233.231L230.924 182.62H229.963C219.84 191.718 209.397 196.267 198.633 196.267ZM210.358 169.742C213.561 169.742 216.444 169.037 219.007 167.628C221.57 166.218 224.197 164.04 226.888 161.093V143.602C208.051 146.036 198.633 151.61 198.633 160.324C198.633 163.399 199.658 165.77 201.708 167.436C203.758 168.973 206.642 169.742 210.358 169.742ZM287.519 193.576V40.0008H321.156V125.342H322.117L354.408 84.209H391.889L353.832 129.763L394.58 193.576H357.484L333.842 152.059L321.156 166.475V193.576H287.519ZM442.4 196.267C430.739 196.267 422.089 192.423 416.451 184.735C410.941 176.918 408.186 165.962 408.186 151.867V84.209H442.4V147.638C442.4 154.942 443.361 160.004 445.283 162.823C447.333 165.642 450.601 167.051 455.085 167.051C458.93 167.051 462.197 166.218 464.888 164.553C467.579 162.887 470.398 160.004 473.345 155.903V84.209H507.559V193.576H479.688L477.19 178.584H476.421C471.551 184.35 466.426 188.771 461.044 191.846C455.662 194.793 449.447 196.267 442.4 196.267ZM519.725 193.576L564.125 50.3801H605.258L649.658 193.576H613.523L605.258 160.708H562.972L554.707 193.576H519.725ZM569.507 134.183H598.723L595.648 122.074C594.11 116.564 592.124 108.491 589.689 97.8558L584.307 76.1362H583.538C578.541 97.6636 574.889 112.976 572.582 122.074L569.507 134.183ZM661.99 84.209H689.86L692.359 94.7805H692.936C697.549 90.68 702.482 87.4765 707.736 85.17C712.99 82.7354 718.307 81.518 723.689 81.518C732.275 81.518 739.771 83.8246 746.178 88.4376C752.713 92.9225 757.71 99.3935 761.17 107.851C764.63 116.18 766.36 125.918 766.36 137.067C766.36 149.112 764.181 159.619 759.825 168.589C755.596 177.559 749.958 184.414 742.91 189.155C735.862 193.897 728.366 196.267 720.422 196.267C711.067 196.267 702.61 192.487 695.05 184.927L696.203 202.033V233.364H661.99V84.209ZM712.349 168.205C717.987 168.205 722.536 165.706 725.996 160.708C729.455 155.711 731.185 148.023 731.185 137.643C731.185 128.033 729.712 120.921 726.765 116.308C723.945 111.695 719.525 109.388 713.502 109.388C710.299 109.388 707.351 110.157 704.66 111.695C701.969 113.104 699.15 115.411 696.203 118.614V161.862C700.944 166.09 706.326 168.205 712.349 168.205ZM835.979 196.267C826.496 196.267 817.655 193.961 809.454 189.348C801.253 184.735 794.653 178.071 789.656 169.358C784.787 160.644 782.352 150.457 782.352 138.796C782.352 127.136 784.787 117.013 789.656 108.427C794.653 99.7139 801.253 93.0506 809.454 88.4376C817.655 83.8246 826.496 81.518 835.979 81.518C845.333 81.518 854.11 83.8246 862.311 88.4376C870.512 93.0506 877.047 99.7139 881.917 108.427C886.914 117.013 889.413 127.136 889.413 138.796C889.413 150.457 886.914 160.644 881.917 169.358C877.047 178.071 870.512 184.735 862.311 189.348C854.11 193.961 845.333 196.267 835.979 196.267ZM835.979 168.589C842.129 168.589 846.742 165.962 849.818 160.708C852.893 155.455 854.431 148.151 854.431 138.796C854.431 129.442 852.893 122.202 849.818 117.077C846.742 111.823 842.129 109.196 835.979 109.196C829.7 109.196 825.023 111.823 821.947 117.077C818.872 122.202 817.334 129.442 817.334 138.796C817.334 148.279 818.872 155.647 821.947 160.901C825.023 166.026 829.7 168.589 835.979 168.589Z" fill="#0852FF"/>
<path d="M336.903 342.657H317.77C317.843 342.585 318.531 341.063 319.836 338.092C321.14 335.12 322.662 330.917 324.401 325.482C326.141 319.974 327.699 313.487 329.076 306.023C330.453 298.486 331.141 290.152 331.141 281.02V258.3H347.991V281.02C347.991 291.094 347.447 299.972 346.36 307.654C345.346 315.336 344.041 321.785 342.447 327.003C340.852 332.149 339.512 336.026 338.425 338.635C337.41 341.317 336.903 342.657 336.903 342.657ZM394.735 342.657H376.581C373.827 337.367 371.725 332.149 370.276 327.003C368.826 321.785 367.486 315.336 366.254 307.654C365.094 299.972 364.514 291.094 364.514 281.02V258.3H381.364V281.02C381.364 290.152 382.052 298.486 383.429 306.023C384.806 313.487 386.364 319.974 388.104 325.482C389.843 330.917 391.365 335.12 392.669 338.092C393.974 341.063 394.662 342.585 394.735 342.657ZM376.581 260.475V243.299H384.843V260.475H376.581ZM389.517 260.475V243.299H397.779V260.475H389.517ZM421.216 255.257H438.392C438.102 257.286 437.74 259.242 437.305 261.127C436.87 263.011 436.435 264.823 436 266.562H471.765V283.194C470.968 292.616 468.903 300.95 465.569 308.197C462.235 315.372 458.213 321.278 453.502 325.916C448.864 330.555 444.081 334.287 439.153 337.113C434.297 339.94 429.732 342.186 425.456 343.853C421.252 345.52 417.81 346.643 415.129 347.223C412.447 347.875 411.07 348.165 410.998 348.093V330.482C411.07 330.555 412.483 330.228 415.237 329.504C418.064 328.707 421.506 327.33 425.565 325.373C429.623 323.416 433.863 320.445 438.283 316.459C442.704 312.473 446.255 307.871 448.937 302.653C451.691 297.435 453.539 290.804 454.481 282.76H429.369C425.166 289.282 421.071 294.572 417.085 298.631C413.099 302.689 409.766 305.661 407.084 307.545C404.475 309.429 403.098 310.335 402.953 310.263V289.282C403.026 289.282 403.823 288.63 405.345 287.325C406.939 285.948 408.751 283.774 410.78 280.803C412.81 277.831 414.766 274.317 416.651 270.258C418.607 266.127 420.129 261.127 421.216 255.257ZM539.515 275.367H483.748V258.735H557.235V275.367C555.495 283.412 552.741 290.297 548.973 296.022C545.204 301.675 541.508 305.769 537.885 308.306C534.261 310.842 531.326 312.69 529.079 313.85C526.905 315.009 525.782 315.553 525.71 315.48V296.783C525.782 296.855 526.688 296.312 528.427 295.152C530.239 293.993 532.232 291.891 534.406 288.847C536.653 285.731 538.356 281.238 539.515 275.367ZM483.748 347.767V328.96C483.821 329.033 484.98 328.779 487.227 328.199C489.546 327.547 492.046 326.17 494.728 324.068C497.482 321.894 499.91 318.597 502.011 314.176C504.185 309.683 505.309 303.595 505.381 295.913V285.912H521.796V296.565C521.651 305.407 520.202 312.908 517.448 319.068C514.694 325.155 511.469 330.12 507.773 333.961C504.149 337.729 500.489 340.592 496.793 342.549C493.17 344.578 488.821 346.317 483.748 347.767ZM639.035 254.387C639.035 252.648 638.456 251.234 637.296 250.147C636.136 248.988 634.723 248.408 633.056 248.408C631.39 248.408 629.976 248.988 628.817 250.147C627.73 251.234 627.186 252.648 627.186 254.387C627.186 256.054 627.73 257.467 628.817 258.626C629.976 259.714 631.39 260.257 633.056 260.257C634.723 260.257 636.136 259.714 637.296 258.626C638.456 257.467 639.035 256.054 639.035 254.387ZM623.708 244.929C626.244 242.393 629.36 241.125 633.056 241.125C636.752 241.125 639.869 242.429 642.405 245.038C645.014 247.575 646.319 250.691 646.319 254.387C646.319 258.083 645.014 261.199 642.405 263.736C639.869 266.272 636.752 267.54 633.056 267.54C629.36 267.54 626.244 266.272 623.708 263.736C621.171 261.199 619.903 258.083 619.903 254.387C619.903 250.691 621.171 247.538 623.708 244.929ZM573.811 291.239H588.269C588.196 303.486 587.834 312.908 587.182 319.503C586.53 326.098 585.515 333.381 584.138 341.353H568.484C568.557 341.208 568.955 339.251 569.68 335.483C570.477 331.714 571.347 326.098 572.289 318.633C573.231 311.096 573.738 301.965 573.811 291.239ZM619.142 291.239H633.709C633.709 301.965 634.107 311.096 634.904 318.633C635.702 326.098 636.535 331.714 637.405 335.483C638.347 339.251 638.854 341.208 638.927 341.353H623.273C621.896 333.381 620.881 326.098 620.229 319.503C619.577 312.908 619.214 303.486 619.142 291.239ZM639.796 267.214V284.608H611.641V345.919H595.444V284.608H567.615V267.214H595.444V254.822H611.641V267.214H639.796Z" fill="#0852FF"/>
</g>
<defs>
<filter id="filter0_d_2133_245" x="0" y="0" width="987.029" height="388.201" filterUnits="userSpaceOnUse" color-interpolation-filters="sRGB">
<feFlood flood-opacity="0" result="BackgroundImageFix"/>
<feColorMatrix in="SourceAlpha" type="matrix" values="0 0 0 0 0 0 0 0 0 0 0 0 0 0 0 0 0 0 127 0" result="hardAlpha"/>
<feOffset/>
<feGaussianBlur stdDeviation="20"/>
<feComposite in2="hardAlpha" operator="out"/>
<feColorMatrix type="matrix" values="0 0 0 0 1 0 0 0 0 1 0 0 0 0 1 0 0 0 1 0"/>
<feBlend mode="normal" in2="BackgroundImageFix" result="effect1_dropShadow_2133_245"/>
<feBlend mode="normal" in="SourceGraphic" in2="effect1_dropShadow_2133_245" result="shape"/>
</filter>
</defs>
</svg>
