<svg width="88" height="16" viewBox="0 0 88 16" fill="none" xmlns="http://www.w3.org/2000/svg">
<path d="M32.1523 13.741C31.9711 13.741 31.8071 13.7113 31.6603 13.652C31.5166 13.5895 31.3807 13.5208 31.2526 13.4458C31.1183 13.3646 30.9886 13.2896 30.8637 13.2209C30.7418 13.1521 30.6122 13.1178 30.4747 13.1178C30.3685 13.1178 30.2685 13.1459 30.1748 13.2021C30.0842 13.2552 30.003 13.3255 29.9311 13.413C29.8593 13.4973 29.7968 13.5879 29.7437 13.6848L29.336 13.4036C29.486 13.1693 29.6516 12.9834 29.8327 12.846C30.0139 12.7054 30.2279 12.6351 30.4747 12.6351C30.6434 12.6351 30.7996 12.6664 30.9433 12.7288C31.0902 12.7913 31.2292 12.8616 31.3604 12.9397C31.4978 13.0178 31.6306 13.0912 31.7587 13.16C31.8868 13.2256 32.018 13.2584 32.1523 13.2584C32.2617 13.2584 32.3616 13.2318 32.4522 13.1787C32.5428 13.1225 32.624 13.0522 32.6959 12.9678C32.7709 12.8804 32.8333 12.7882 32.8833 12.6914L33.291 12.9725C33.1411 13.2068 32.9755 13.3943 32.7943 13.5348C32.6131 13.6723 32.3991 13.741 32.1523 13.741ZM34.6218 15.2827V13.9331H35.7886C35.8043 13.8894 35.8199 13.8425 35.8355 13.7926C35.8511 13.7395 35.8652 13.6895 35.8777 13.6426H34.992V12.4758H37.4662V13.6426H36.5197C36.504 13.6895 36.4869 13.7395 36.4681 13.7926C36.4525 13.8425 36.4369 13.8894 36.4213 13.9331H37.8411V15.2827H34.6218ZM34.1907 12.7944V11.7823H34.978C34.928 11.6948 34.8702 11.6073 34.8046 11.5199C34.739 11.4324 34.6796 11.3605 34.6265 11.3043L35.0623 11.0559C35.1154 11.1122 35.1717 11.1793 35.231 11.2574C35.2935 11.3324 35.3513 11.4074 35.4044 11.4824C35.4575 11.5573 35.4981 11.6229 35.5262 11.6792L35.3435 11.7823H36.0557C36.0089 11.6823 35.9511 11.5761 35.8824 11.4636C35.8136 11.3512 35.7449 11.2574 35.6762 11.1825L36.1307 10.9716C36.1745 11.0216 36.226 11.0903 36.2854 11.1778C36.3447 11.2621 36.4009 11.348 36.4541 11.4355C36.5072 11.5199 36.5462 11.5901 36.5712 11.6464L36.2994 11.7823H36.8664C36.9133 11.701 36.9617 11.612 37.0117 11.5152C37.0648 11.4183 37.1132 11.3246 37.157 11.234C37.2038 11.1434 37.2382 11.0684 37.26 11.0091L37.7943 11.1497C37.7536 11.2371 37.7037 11.3387 37.6443 11.4543C37.5849 11.5667 37.524 11.6761 37.4615 11.7823H38.2769V12.7944H37.7193V12.2274H34.739V12.7944H34.1907ZM35.1795 14.8282H37.2835V14.3877H35.1795V14.8282ZM35.5309 13.2396H36.932V12.8835H35.5309V13.2396ZM40.8964 15.3577V14.4252C40.7558 14.5501 40.5965 14.6688 40.4184 14.7813C40.2435 14.8938 40.0623 14.9953 39.8748 15.0859C39.6905 15.1765 39.5109 15.2515 39.3359 15.3108C39.3203 15.2733 39.2969 15.2265 39.2657 15.1702C39.2344 15.1171 39.2 15.0625 39.1626 15.0062C39.1251 14.9531 39.0891 14.911 39.0548 14.8797C39.2079 14.8329 39.3719 14.7704 39.5468 14.6923C39.7218 14.6111 39.8936 14.522 40.0623 14.4252C40.2341 14.3252 40.3872 14.2252 40.5215 14.1253H39.0642V13.6988H40.8964V13.488H39.5515V13.0803H40.8964V12.8741H39.3406V12.4571H40.1935C40.1716 12.4039 40.1497 12.3524 40.1279 12.3024C40.106 12.2493 40.0826 12.2024 40.0576 12.1618H39.0642V11.7354H39.7296C39.6983 11.6542 39.6608 11.5652 39.6171 11.4683C39.5765 11.3715 39.5343 11.2934 39.4906 11.234L39.9639 11.0419C39.9951 11.0887 40.0279 11.1497 40.0623 11.2246C40.0998 11.2965 40.1341 11.3683 40.1654 11.4402C40.1966 11.5089 40.2216 11.5667 40.2403 11.6136L39.9451 11.7354H40.4653V11.0466H40.976V11.7354H41.2994V11.0466H41.8148V11.7354H42.3678L41.9882 11.6042C42.0195 11.5605 42.0538 11.5042 42.0913 11.4355C42.1319 11.3637 42.1694 11.2918 42.2038 11.22C42.2413 11.145 42.2678 11.0856 42.2834 11.0419L42.7989 11.1918C42.7708 11.2449 42.7364 11.3074 42.6958 11.3793C42.6552 11.4511 42.6146 11.5199 42.574 11.5855C42.5365 11.6479 42.5052 11.6979 42.4802 11.7354H43.2394V12.1618H42.2413C42.2006 12.2681 42.16 12.3665 42.1194 12.4571H42.9207V12.8741H41.4165V13.0803H42.7333V13.488H41.4165V13.6988H43.2441V14.1253H41.782C41.9164 14.2252 42.0679 14.3252 42.2366 14.4252C42.4053 14.522 42.5771 14.6095 42.752 14.6876C42.927 14.7657 43.091 14.8282 43.2441 14.875C43.2128 14.9063 43.1785 14.9484 43.141 15.0016C43.1035 15.0578 43.0691 15.114 43.0379 15.1702C43.0066 15.2265 42.9832 15.2733 42.9676 15.3108C42.7958 15.2515 42.6177 15.1765 42.4334 15.0859C42.2491 14.9984 42.0694 14.8985 41.8945 14.786C41.7196 14.6735 41.5602 14.5548 41.4165 14.4299V15.3577H40.8964ZM40.7792 12.4571H41.5243C41.5462 12.4133 41.568 12.3665 41.5899 12.3165C41.6118 12.2634 41.6336 12.2118 41.6555 12.1618H40.6527C40.6777 12.2118 40.7011 12.2634 40.723 12.3165C40.7449 12.3696 40.7636 12.4164 40.7792 12.4571ZM45.7792 15.3108V14.6548H43.9423V14.1956H45.7792V13.9566H44.4531V12.7335H45.7792V12.4899H45.0857V11.8572H44.0126V11.4027H45.0857V11.0559H45.648V11.4027H46.5008V11.0559H47.0632V11.4027H48.1409V11.8572H47.0632V12.4899H46.3649V12.7335H47.7004V13.9566H46.3649V14.1956H48.2112V14.6548H46.3649V15.3108H45.7792ZM46.3649 13.5255H47.1428V13.1646H46.3649V13.5255ZM45.0107 13.5255H45.7792V13.1646H45.0107V13.5255ZM45.648 12.115H46.5008V11.8572H45.648V12.115ZM49.0172 12.9022C48.986 12.8304 48.9391 12.7491 48.8766 12.6586C48.8142 12.568 48.7532 12.4945 48.6939 12.4383C48.8907 12.3727 49.0906 12.2852 49.2937 12.1759C49.4999 12.0634 49.6967 11.94 49.8841 11.8057C50.0747 11.6682 50.2434 11.5277 50.3902 11.384C50.5402 11.2403 50.6573 11.1012 50.7417 10.9669L51.2712 11.0419C51.3743 11.1793 51.5024 11.3152 51.6554 11.4496C51.8116 11.5808 51.9819 11.7057 52.1662 11.8244C52.3505 11.94 52.5395 12.0431 52.7332 12.1337C52.93 12.2243 53.1206 12.2962 53.3049 12.3493C53.2612 12.3868 53.2143 12.4367 53.1643 12.4992C53.1175 12.5617 53.0737 12.6258 53.0331 12.6914C52.9956 12.7538 52.9659 12.8085 52.9441 12.8554C52.7848 12.796 52.6176 12.7226 52.4427 12.6351C52.2709 12.5445 52.1022 12.4446 51.9366 12.3352V12.6726H50.0294V12.3493C49.6857 12.5773 49.3484 12.7616 49.0172 12.9022ZM49.2703 14.8047V12.9397H50.7838V14.8047H49.2703ZM51.0884 15.3249V12.9444H52.7238V14.3924C52.7238 14.5642 52.677 14.6892 52.5833 14.7673C52.4895 14.8454 52.3443 14.8844 52.1475 14.8844H51.8616C51.8585 14.8344 51.8507 14.7751 51.8382 14.7063C51.8257 14.6345 51.8101 14.5642 51.7913 14.4955C51.7757 14.4267 51.7585 14.3721 51.7398 14.3315H51.9975C52.06 14.3315 52.1053 14.3221 52.1334 14.3033C52.1615 14.2815 52.1756 14.2393 52.1756 14.1768V13.4317H51.632V15.3249H51.0884ZM50.2543 12.19H51.7257C51.582 12.0837 51.4461 11.9744 51.318 11.8619C51.1931 11.7495 51.0853 11.6386 50.9947 11.5292C50.9041 11.6354 50.7948 11.7448 50.6667 11.8572C50.5386 11.9697 50.4011 12.0806 50.2543 12.19ZM49.7951 14.3221H50.259V13.4271H49.7951V14.3221ZM56.7538 13.741C56.5726 13.741 56.4086 13.7113 56.2618 13.652C56.1181 13.5895 55.9822 13.5208 55.8541 13.4458C55.7198 13.3646 55.5901 13.2896 55.4651 13.2209C55.3433 13.1521 55.2137 13.1178 55.0762 13.1178C54.97 13.1178 54.87 13.1459 54.7763 13.2021C54.6857 13.2552 54.6045 13.3255 54.5326 13.413C54.4608 13.4973 54.3983 13.5879 54.3452 13.6848L53.9375 13.4036C54.0875 13.1693 54.253 12.9834 54.4342 12.846C54.6154 12.7054 54.8294 12.6351 55.0762 12.6351C55.2449 12.6351 55.4011 12.6664 55.5448 12.7288C55.6916 12.7913 55.8307 12.8616 55.9619 12.9397C56.0993 13.0178 56.2321 13.0912 56.3602 13.16C56.4883 13.2256 56.6195 13.2584 56.7538 13.2584C56.8631 13.2584 56.9631 13.2318 57.0537 13.1787C57.1443 13.1225 57.2255 13.0522 57.2974 12.9678C57.3723 12.8804 57.4348 12.7882 57.4848 12.6914L57.8925 12.9725C57.7425 13.2068 57.577 13.3943 57.3958 13.5348C57.2146 13.6723 57.0006 13.741 56.7538 13.741Z" fill="url(#paint0_linear_2049_66)"/>
<path d="M0.883722 7V1.45574H6.96302V2.46379H2.1244V3.68895H6.51328V4.697H2.1244V5.99195H6.96302V7H0.883722ZM7.81253 7V1.45574H9.0532V7H7.81253ZM12.8357 7.03877C11.8897 7.03877 11.1505 6.80356 10.618 6.33314C10.0908 5.85755 9.82711 5.1545 9.82711 4.22399C9.82711 3.29866 10.0959 2.60078 10.6335 2.13036C11.1763 1.65477 11.9621 1.41697 12.9908 1.41697H15.9374V2.42502H13.0761C12.3989 2.42502 11.8975 2.56718 11.5718 2.8515C11.2513 3.13582 11.091 3.59332 11.091 4.22399C11.091 4.82365 11.2332 5.26823 11.5175 5.55772C11.8018 5.84204 12.218 5.99712 12.766 6.02297V3.8673H16.2398V7.03877H12.8357ZM13.9291 6.03072H14.9992V4.87535H13.9291V6.03072ZM19.4091 7V5.02268L16.4703 1.45574H18.0056L20.0295 3.9681L22.0456 1.45574H23.5809L20.6576 5.01492V7H19.4091ZM26.3398 7.03877C25.3524 7.03877 24.5874 6.80356 24.0446 6.33314C23.5018 5.85755 23.2304 5.1545 23.2304 4.22399C23.2304 3.29866 23.5018 2.60078 24.0446 2.13036C24.5874 1.65477 25.3705 1.41697 26.3941 1.41697H27.7899C28.8134 1.41697 29.5966 1.65477 30.1394 2.13036C30.6822 2.60078 30.9536 3.29866 30.9536 4.22399C30.9536 5.1545 30.6822 5.85755 30.1394 6.33314C29.5966 6.80356 28.8263 7.03877 27.8286 7.03877H26.3398ZM26.4794 2.42502C25.9056 2.42502 25.4584 2.52841 25.1379 2.73519C24.8174 2.94196 24.6158 3.27023 24.5331 3.71997H29.6509C29.5682 3.27023 29.3665 2.94196 29.046 2.73519C28.7255 2.52841 28.2784 2.42502 27.7046 2.42502H26.4794ZM26.5027 6.03072H27.7046C28.2835 6.03072 28.7307 5.92733 29.046 5.72056C29.3665 5.51378 29.5682 5.18293 29.6509 4.72802H24.5331C24.6158 5.18293 24.8174 5.51378 25.1379 5.72056C25.4584 5.92733 25.9133 6.03072 26.5027 6.03072ZM33.9674 7.03877C33.4039 7.03877 32.9593 6.9664 32.6336 6.82165C32.308 6.67174 32.0753 6.44687 31.9358 6.14704C31.7962 5.84721 31.7264 5.46984 31.7264 5.01492V1.45574H32.9671V5.01492C32.9671 5.4078 33.0575 5.67662 33.2385 5.82136C33.4246 5.96094 33.7373 6.03072 34.1767 6.03072H35.6733C36.1127 6.03072 36.4229 5.96094 36.6038 5.82136C36.7899 5.67662 36.8829 5.4078 36.8829 5.01492V1.45574H38.1236V5.01492C38.1236 5.46984 38.0538 5.84721 37.9142 6.14704C37.7747 6.44687 37.542 6.67174 37.2164 6.82165C36.8907 6.9664 36.4461 7.03877 35.8826 7.03877H33.9674ZM41.9189 7V1.47125H43.1596V3.72772H45.0051L46.8273 1.47125H48.3704L46.0907 4.23175L48.3704 7H46.8273L44.9974 4.73577H43.1596V7H41.9189ZM48.5264 7L51.0232 1.45574H52.9385L55.4354 7H54.0861L53.5588 5.82911H50.4029L49.8756 7H48.5264ZM50.8526 4.82107H53.1091L52.0313 2.42502H51.9305L50.8526 4.82107ZM56.0567 7V1.47125H57.2974V3.72772H59.1429L60.9651 1.47125H62.5082L60.2285 4.23175L62.5082 7H60.9651L59.1352 4.73577H57.2974V7H56.0567ZM65.3704 7.03877C64.8069 7.03877 64.3623 6.9664 64.0367 6.82165C63.711 6.67174 63.4784 6.44687 63.3388 6.14704C63.1992 5.84721 63.1294 5.46984 63.1294 5.01492V1.45574H64.3701V5.01492C64.3701 5.4078 64.4606 5.67662 64.6415 5.82136C64.8276 5.96094 65.1403 6.03072 65.5797 6.03072H67.0763C67.5157 6.03072 67.8259 5.96094 68.0068 5.82136C68.1929 5.67662 68.286 5.4078 68.286 5.01492V1.45574H69.5266V5.01492C69.5266 5.46984 69.4569 5.84721 69.3173 6.14704C69.1777 6.44687 68.9451 6.67174 68.6194 6.82165C68.2937 6.9664 67.8491 7.03877 67.2857 7.03877H65.3704ZM70.611 7V1.45574H71.6501L74.2167 3.25472H74.2555L76.8221 1.45574H77.8612V7H76.6205V3.00658L74.8603 4.18522V7H73.6196V4.18522L71.8517 3.00658V7H70.611ZM78.9483 7V1.45574H85.0276V2.46379H80.189V3.68895H84.5779V4.697H80.189V5.99195H85.0276V7H78.9483ZM85.8771 7V1.45574H87.1178V7H85.8771Z" fill="url(#paint1_linear_2049_66)"/>
<defs>
<linearGradient id="paint0_linear_2049_66" x1="58.6143" y1="12.4688" x2="28.6143" y2="12.4688" gradientUnits="userSpaceOnUse">
<stop stop-color="#4689C8"/>
<stop offset="0.350962" stop-color="#1C59A9"/>
<stop offset="1" stop-color="#13418F"/>
</linearGradient>
<linearGradient id="paint1_linear_2049_66" x1="88" y1="4.5" x2="0" y2="4.5" gradientUnits="userSpaceOnUse">
<stop stop-color="#4689C8"/>
<stop offset="0.350962" stop-color="#1C59A9"/>
<stop offset="1" stop-color="#13418F"/>
</linearGradient>
</defs>
</svg>
